# xmcd CD database file
#
# Track frame offsets:
#	183
#	12510
#	23283
#	33058
#	50345
#	68800
#	82083
#	93265
#	107878
#	119705
#	133843
#	145550
#	154358
#	171880
#	183845
#	202193
#	220603
#	238230
#
# Disc length: 3401 seconds
#
# Revision: 0
# Processed by: cddbd v1.5.1PL0 Copyright (c) Steve Scherf et al.
# Submitted via: CDex 1.50
#
DISCID=f90d4712
DTITLE=SARAH VAUGHAN - The Divine Lady - CD2
DYEAR=1991
DGENRE=Jazz
TTITLE0=My Favourites Things
TTITLE1=Every Time We Say Goodbye
TTITLE2=East To Love
TTITLE3=Sophisticated Lady
TTITLE4=In A Sentiment Al Mood
TTITLE5=Withhcraft
TTITLE6=Moonglow
TTITLE7=Honeysuckle Rose
TTITLE8=After You've Gone
TTITLE9=I Can't Give You Anything But Love
TTITLE10=The Trolley Song
TTITLE11=Great Day
TTITLE12=I Was Telling Him About You
TTITLE13=Call Me Irresponsible
TTITLE14=Bewldered
TTITLE15=Lonely Hours
TTITLE16=If I Had You
TTITLE17=I'll Never Be The Same
EXTD=YEAR: 1991
EXTT0=
EXTT1=
EXTT2=
EXTT3=
EXTT4=
EXTT5=
EXTT6=
EXTT7=
EXTT8=
EXTT9=
EXTT10=
EXTT11=
EXTT12=
EXTT13=
EXTT14=
EXTT15=
EXTT16=
EXTT17=
PLAYORDER=
